<?xml version="1.0" encoding="iso-8859-1"?>
<!-- Generator: Adobe Illustrator 19.0.0, SVG Export Plug-In . SVG Version: 6.00 Build 0)  -->
<svg version="1.1" id="Capa_1" xmlns="http://www.w3.org/2000/svg" xmlns:xlink="http://www.w3.org/1999/xlink" x="0px" y="0px"
	 viewBox="0 0 512.034 512.034" style="enable-background:new 0 0 512.034 512.034;" xml:space="preserve">
<g transform="translate(-1)">
	<g transform="translate(1)">
		<g>
			<path style="fill:#AD1457;" d="M221.901,170.684v68.267h-51.2l8.533-68.267c0-4.713,3.82-8.533,8.533-8.533h25.6
				C218.081,162.151,221.901,165.971,221.901,170.684z"/>
			<path style="fill:#AD1457;" d="M341.368,238.951h-51.2v-68.267c0-4.713,3.821-8.533,8.533-8.533h25.6
				c4.713,0,8.533,3.82,8.533,8.533L341.368,238.951z"/>
			<path style="fill:#AD1457;" d="M494.968,397.073v71.253c-0.023,18.842-15.292,34.11-34.133,34.133H34.168
				c-18.842-0.023-34.11-15.292-34.133-34.133v-71.253c-0.001-1.888,0.316-3.764,0.939-5.547l16.128-17.067h460.8l16.128,17.067
				C494.651,393.31,494.969,395.185,494.968,397.073z"/>
		</g>
		<path style="fill:#E91E63;" d="M469.368,397.073v71.253c-0.023,18.842-15.292,34.11-34.133,34.133H34.168
			c-18.842-0.023-34.11-15.292-34.133-34.133v-71.253c-0.001-1.888,0.316-3.764,0.939-5.547l16.128-17.067h435.2l16.128,17.067
			C469.051,393.31,469.369,395.185,469.368,397.073z"/>
		<path style="fill:#8BC34A;" d="M128.034,21.589c42.162-9.361,85.278-13.737,128.461-13.039c76.8,0,171.785,8.064,226.987,62.293
			c11.505,10.206,18.668,24.428,20.019,39.748c0.367,13.227-5.495,25.865-8.457,38.827c-1.63,7.134-3.098,15.411-10.138,19.106
			c-6.037,2.258-12.65,2.465-18.816,0.589l-46.217-8.849c-12.322-2.355-18.953-4.71-31.275-7.074
			c-6.877-0.487-13.362-3.385-18.313-8.183c-2.971-5.171-3.76-11.312-2.193-17.067l3.482-24.747
			c1.655-6.182,0.898-12.762-2.116-18.406c-4.113-5.871-17.963-8.405-25.6-9.719c-58.38-9.169-117.844-9.025-176.179,0.427
			c-11.776,1.783-28.698,8.644-27.11,20.813l4.855,37.231c0.993,8.746-5.025,16.743-13.705,18.21l-40.004,8.772l-51.524,9.839
			c-8.845,1.828-17.601-3.481-20.07-12.169l-9.771-37.419C7.642,110.715,9.077,99.991,14.336,91
			C26.488,70.528,55.134,39.143,128.034,21.589"/>
		<path style="fill:#AD1457;" d="M502.562,392.551H9.506c0.573-1.616,1.377-3.139,2.389-4.523l108.459-147.2
			c4.835-6.559,12.503-10.425,20.651-10.411h230.059c8.148-0.014,15.816,3.852,20.651,10.411l108.459,147.2
			C501.185,389.411,501.99,390.935,502.562,392.551z"/>
		<path style="fill:#E91E63;" d="M467.49,392.551H9.506c0.573-1.616,1.377-3.139,2.389-4.523l108.459-147.2
			c4.835-6.559,12.503-10.425,20.651-10.411h194.987c8.148-0.014,15.816,3.852,20.651,10.411l108.459,147.2
			C466.113,389.411,466.918,390.935,467.49,392.551z"/>
		<path style="fill:#CFD8DC;" d="M341.368,311.484c-0.128,6.672-2.503,13.106-6.741,18.261c-4.982,6.194-11.202,11.28-18.261,14.933
			c-8.54,4.586-17.672,7.974-27.136,10.069c-10.888,2.489-22.026,3.72-33.195,3.669c-4.274,0.018-8.546-0.181-12.8-0.597
			c-6.871-0.465-13.692-1.492-20.395-3.072c-9.464-2.095-18.596-5.484-27.136-10.069c-7.06-3.653-13.28-8.739-18.261-14.933
			c-8.99-10.514-8.99-26.008,0-36.523c4.982-6.194,11.201-11.28,18.261-14.933c8.54-4.586,17.672-7.974,27.136-10.069
			c6.703-1.58,13.524-2.607,20.395-3.072c4.254-0.416,8.526-0.615,12.8-0.597c11.169-0.051,22.307,1.18,33.195,3.669
			c9.465,2.095,18.596,5.484,27.136,10.069c7.06,3.653,13.28,8.739,18.261,14.933C338.864,298.378,341.239,304.812,341.368,311.484z
			"/>
		<path style="fill:#F5F5F5;" d="M315.768,311.484c-0.128,6.672-2.503,13.106-6.741,18.261c-4.982,6.194-11.202,11.28-18.261,14.933
			c-8.54,4.586-17.672,7.974-27.136,10.069c-6.703,1.58-13.524,2.607-20.395,3.072c-6.871-0.465-13.692-1.492-20.395-3.072
			c-9.464-2.095-18.596-5.484-27.136-10.069c-7.06-3.653-13.28-8.739-18.261-14.933c-8.99-10.514-8.99-26.008,0-36.523
			c4.982-6.194,11.201-11.28,18.261-14.933c8.54-4.586,17.672-7.974,27.136-10.069c6.703-1.58,13.524-2.607,20.395-3.072
			c6.871,0.465,13.692,1.492,20.395,3.072c9.465,2.095,18.596,5.484,27.136,10.069c7.06,3.653,13.28,8.739,18.261,14.933
			C313.264,298.378,315.639,304.812,315.768,311.484z"/>
		<path style="fill:#558B30;" d="M503.501,110.609c0.341,13.227-5.547,25.856-8.448,38.827c-0.437,7.547-4.145,14.528-10.155,19.115
			c-6.052,2.253-12.676,2.463-18.859,0.597c-1.963-0.427-4.011-0.768-5.973-1.109c5.507-4.684,8.891-11.391,9.387-18.603
			c2.901-12.971,8.789-25.6,8.448-38.827c-1.328-15.32-8.474-29.55-19.968-39.765c-50.944-49.92-135.765-60.757-208.896-62.208
			c2.389-0.085,4.949-0.085,7.424-0.085c76.885,0,171.776,8.107,227.072,62.293C495.027,81.059,502.173,95.289,503.501,110.609z"/>
	</g>
	<g>
		<path d="M7.545,86.639c-6.452,10.932-8.224,24.003-4.915,36.258l9.771,37.427c3.049,11.234,13.294,18.997,24.934,18.893
			c1.678,0.001,3.353-0.159,5.001-0.478l51.712-9.916l39.782-8.73c13.094-2.354,22.1-14.484,20.565-27.699l-4.855-37.231
			c-0.606-4.634,10.018-9.771,19.925-11.264c57.431-9.292,115.97-9.444,173.449-0.452c15.795,2.722,19.285,5.257,20.036,6.204
			c1.587,3.919,1.819,8.256,0.657,12.322l-3.482,24.747c-1.958,8.001-0.568,16.454,3.849,23.407
			c6.185,6.535,14.54,10.591,23.501,11.409c5.973,1.143,10.573,2.295,15.172,3.413c4.881,1.212,9.754,2.423,16.102,3.635
			l46.259,8.926c8.045,2.372,16.664,1.871,24.38-1.417c8.121-5.233,13.381-13.914,14.259-23.535l0.282-1.237
			c0.896-3.942,2.082-7.851,3.268-11.759c3.377-9.375,5.198-19.239,5.393-29.201c-1.377-17.556-9.47-33.905-22.596-45.645
			c-59.085-57.993-161.28-64.7-232.96-64.7C93.391,0.017,31.038,47.121,7.545,86.639z M257.034,17.084
			c68.719,0,166.4,6.204,221.013,59.81c9.928,8.675,16.167,20.815,17.442,33.937c-0.298,8.127-1.876,16.156-4.676,23.791
			c-1.289,4.267-2.56,8.576-3.567,12.902l-0.299,1.297c-1.425,6.349-2.56,10.624-5.487,12.151
			c-4.347,1.184-8.942,1.101-13.244-0.239l-46.225-8.823c-5.973-1.143-10.59-2.295-15.189-3.413
			c-4.881-1.212-9.754-2.423-16.085-3.635c-4.087-0.785-10.94-2.091-13.116-4.966c-1.371-3.412-1.563-7.184-0.546-10.718
			l3.49-24.747c2.037-8.322,0.751-17.11-3.584-24.499c-5.513-7.851-18.219-10.991-31.113-13.218
			c-59.284-9.303-119.667-9.171-178.91,0.393c-18.671,2.833-36.514,13.312-34.295,30.353l4.864,37.222
			c0.352,4.344-2.755,8.205-7.074,8.789l-39.799,8.644l-51.507,9.865c-4.452,1.005-8.923-1.603-10.24-5.973l-9.737-37.376
			c-2.152-7.846-1.051-16.229,3.055-23.253C43.436,59.648,101.412,17.084,257.034,17.084z"/>
		<path d="M511.234,388.941c-0.797-2.121-1.867-4.129-3.183-5.973l-108.467-147.2c-6.45-8.715-16.643-13.864-27.486-13.884h-22.187
			l-7.543-60.356c-0.335-9.182-7.879-16.45-17.067-16.444h-25.6c-9.426,0-17.067,7.641-17.067,17.067v68.267
			c0,4.713,3.821,8.533,8.533,8.533c4.713,0,8.533-3.821,8.533-8.533v-68.267h25.6c-0.003,0.354,0.02,0.708,0.068,1.058
			l8.533,68.267c0.534,4.27,4.162,7.474,8.465,7.475h29.73c5.419,0.009,10.515,2.582,13.739,6.938l101.777,138.129h-68.446
			c-4.713,0-8.533,3.821-8.533,8.533c0,4.713,3.821,8.533,8.533,8.533h76.8v68.267c0,14.138-11.462,25.6-25.6,25.6H43.701
			c-14.138,0-25.6-11.462-25.6-25.6v-68.267h358.4c4.713,0,8.533-3.821,8.533-8.533c0-4.713-3.821-8.533-8.533-8.533H26.455
			l101.777-138.129c3.224-4.356,8.319-6.929,13.739-6.938h29.73c4.303-0.001,7.932-3.206,8.465-7.475l8.533-68.267
			c0.048-0.351,0.071-0.704,0.068-1.058h25.6v68.267c0,4.713,3.821,8.533,8.533,8.533h34.133c4.713,0,8.533-3.821,8.533-8.533
			s-3.821-8.533-8.533-8.533h-25.6v-59.733c0-9.426-7.641-17.067-17.067-17.067h-25.6c-9.188-0.006-16.731,7.262-17.067,16.444
			l-7.535,60.356h-22.187c-10.83,0.03-21.009,5.178-27.452,13.884L6.018,382.976c-1.322,1.84-2.393,3.849-3.183,5.973
			c-0.094,0.188-0.179,0.401-0.265,0.614c-0.999,2.756-1.518,5.662-1.536,8.593v71.194c0.028,23.552,19.114,42.638,42.667,42.667
			h426.667c23.552-0.028,42.638-19.114,42.667-42.667v-71.194c-0.017-2.928-0.537-5.832-1.536-8.585
			C511.413,389.351,511.328,389.137,511.234,388.941z"/>
		<path d="M200.8,285.773c7.859-4.194,16.254-7.298,24.951-9.225c20.602-4.599,41.965-4.599,62.566,0
			c2.975,0.707,6.101-0.233,8.194-2.463c2.093-2.23,2.832-5.409,1.938-8.334c-0.894-2.925-3.285-5.147-6.267-5.826
			c-23.146-5.18-47.151-5.18-70.298,0c-10.217,2.281-20.076,5.944-29.303,10.889c-8.089,4.234-15.218,10.09-20.941,17.203
			c-11.313,13.599-11.313,33.334,0,46.933c5.723,7.113,12.852,12.97,20.941,17.203c9.228,4.944,19.086,8.607,29.303,10.889
			c23.143,5.211,47.155,5.211,70.298,0c10.217-2.281,20.076-5.944,29.303-10.889c8.089-4.234,15.218-10.09,20.941-17.203
			c11.313-13.599,11.313-33.334,0-46.933c-1.832-2.491-4.869-3.795-7.937-3.41c-3.068,0.385-5.687,2.4-6.847,5.266
			c-1.16,2.866-0.678,6.136,1.258,8.546c6.575,7.469,6.575,18.66,0,26.129c-4.306,5.225-9.624,9.527-15.633,12.646
			c-7.859,4.194-16.254,7.298-24.951,9.225c-20.602,4.599-41.965,4.599-62.566,0c-8.695-1.925-17.087-5.029-24.943-9.225
			c-6.013-3.118-11.334-7.419-15.642-12.646c-6.575-7.469-6.575-18.66,0-26.129C189.473,293.194,194.79,288.893,200.8,285.773z"/>
	</g>
</g>
<g>
</g>
<g>
</g>
<g>
</g>
<g>
</g>
<g>
</g>
<g>
</g>
<g>
</g>
<g>
</g>
<g>
</g>
<g>
</g>
<g>
</g>
<g>
</g>
<g>
</g>
<g>
</g>
<g>
</g>
</svg>
